<mxfile host="app.diagrams.net" modified="2023-06-21T13:06:27.816Z" agent="Mozilla/5.0 (Windows NT 10.0; Win64; x64) AppleWebKit/537.36 (KHTML, like Gecko) Chrome/114.0.0.0 Safari/537.36" etag="l4f0yVPVps_V8ObupqOg" version="21.4.0" type="device">
  <diagram name="Page-1" id="efa7a0a1-bf9b-a30e-e6df-94a7791c09e9">
    <mxGraphModel dx="1967" dy="1046" grid="0" gridSize="10" guides="1" tooltips="1" connect="1" arrows="1" fold="1" page="0" pageScale="1" pageWidth="826" pageHeight="1169" background="none" math="0" shadow="0">
      <root>
        <mxCell id="0" />
        <mxCell id="1" parent="0" />
        <mxCell id="2CikSkkNJPFcFxby6BeS-21" style="edgeStyle=orthogonalEdgeStyle;rounded=0;orthogonalLoop=1;jettySize=auto;html=1;exitX=1;exitY=0.5;exitDx=0;exitDy=0;entryX=0;entryY=0.5;entryDx=0;entryDy=0;" edge="1" parent="1" source="mCfEj29NYgwNJOi-wfht-114" target="mCfEj29NYgwNJOi-wfht-115">
          <mxGeometry relative="1" as="geometry" />
        </mxCell>
        <mxCell id="mCfEj29NYgwNJOi-wfht-114" value="index" style="rounded=1;whiteSpace=wrap;html=1;fontStyle=2;fontSize=20;" parent="1" vertex="1">
          <mxGeometry x="-396" y="135" width="159" height="68" as="geometry" />
        </mxCell>
        <mxCell id="2CikSkkNJPFcFxby6BeS-22" style="edgeStyle=orthogonalEdgeStyle;rounded=0;orthogonalLoop=1;jettySize=auto;html=1;exitX=1;exitY=0.5;exitDx=0;exitDy=0;" edge="1" parent="1" source="mCfEj29NYgwNJOi-wfht-115" target="mCfEj29NYgwNJOi-wfht-116">
          <mxGeometry relative="1" as="geometry" />
        </mxCell>
        <mxCell id="mCfEj29NYgwNJOi-wfht-115" value="app" style="rounded=1;whiteSpace=wrap;html=1;fontStyle=2;fontSize=20;" parent="1" vertex="1">
          <mxGeometry x="-197" y="135" width="118" height="68" as="geometry" />
        </mxCell>
        <mxCell id="2CikSkkNJPFcFxby6BeS-23" style="edgeStyle=orthogonalEdgeStyle;rounded=0;orthogonalLoop=1;jettySize=auto;html=1;exitX=0.5;exitY=1;exitDx=0;exitDy=0;entryX=0.5;entryY=0;entryDx=0;entryDy=0;" edge="1" parent="1" source="mCfEj29NYgwNJOi-wfht-116" target="mCfEj29NYgwNJOi-wfht-117">
          <mxGeometry relative="1" as="geometry">
            <mxPoint x="47.35294117647072" y="236.941162109375" as="targetPoint" />
          </mxGeometry>
        </mxCell>
        <mxCell id="2CikSkkNJPFcFxby6BeS-25" style="edgeStyle=orthogonalEdgeStyle;rounded=0;orthogonalLoop=1;jettySize=auto;html=1;exitX=0.5;exitY=1;exitDx=0;exitDy=0;entryX=0.5;entryY=0;entryDx=0;entryDy=0;" edge="1" parent="1" source="mCfEj29NYgwNJOi-wfht-116" target="mCfEj29NYgwNJOi-wfht-119">
          <mxGeometry relative="1" as="geometry" />
        </mxCell>
        <mxCell id="2CikSkkNJPFcFxby6BeS-26" style="edgeStyle=orthogonalEdgeStyle;rounded=0;orthogonalLoop=1;jettySize=auto;html=1;exitX=0.5;exitY=1;exitDx=0;exitDy=0;" edge="1" parent="1" source="mCfEj29NYgwNJOi-wfht-116" target="mCfEj29NYgwNJOi-wfht-118">
          <mxGeometry relative="1" as="geometry" />
        </mxCell>
        <mxCell id="mCfEj29NYgwNJOi-wfht-116" value="Layout" style="rounded=1;whiteSpace=wrap;html=1;fontStyle=2;fontSize=20;" parent="1" vertex="1">
          <mxGeometry x="-19" y="135" width="132" height="68" as="geometry" />
        </mxCell>
        <mxCell id="mCfEj29NYgwNJOi-wfht-117" value="Header" style="rounded=1;whiteSpace=wrap;html=1;fontStyle=2;fontSize=20;" parent="1" vertex="1">
          <mxGeometry x="-555" y="282.5" width="120" height="60" as="geometry" />
        </mxCell>
        <mxCell id="mCfEj29NYgwNJOi-wfht-118" value="ContentWrapper" style="rounded=1;whiteSpace=wrap;html=1;fontStyle=2;fontSize=20;" parent="1" vertex="1">
          <mxGeometry x="-280" y="280.5" width="166" height="64" as="geometry" />
        </mxCell>
        <mxCell id="mCfEj29NYgwNJOi-wfht-119" value="Footer" style="rounded=1;whiteSpace=wrap;html=1;fontStyle=2;fontSize=20;" parent="1" vertex="1">
          <mxGeometry x="-422" y="282.5" width="120" height="60" as="geometry" />
        </mxCell>
        <mxCell id="2CikSkkNJPFcFxby6BeS-27" style="edgeStyle=orthogonalEdgeStyle;rounded=0;orthogonalLoop=1;jettySize=auto;html=1;exitX=0.5;exitY=1;exitDx=0;exitDy=0;entryX=0.5;entryY=0;entryDx=0;entryDy=0;" edge="1" parent="1" source="mCfEj29NYgwNJOi-wfht-120" target="mCfEj29NYgwNJOi-wfht-121">
          <mxGeometry relative="1" as="geometry" />
        </mxCell>
        <mxCell id="mCfEj29NYgwNJOi-wfht-120" value="MapComponent" style="rounded=1;whiteSpace=wrap;html=1;fontStyle=2;fontSize=20;" parent="1" vertex="1">
          <mxGeometry x="-79" y="274" width="252" height="77" as="geometry" />
        </mxCell>
        <mxCell id="2CikSkkNJPFcFxby6BeS-28" style="edgeStyle=orthogonalEdgeStyle;rounded=0;orthogonalLoop=1;jettySize=auto;html=1;exitX=0.5;exitY=1;exitDx=0;exitDy=0;" edge="1" parent="1" source="mCfEj29NYgwNJOi-wfht-121" target="mCfEj29NYgwNJOi-wfht-125">
          <mxGeometry relative="1" as="geometry" />
        </mxCell>
        <mxCell id="2CikSkkNJPFcFxby6BeS-29" style="edgeStyle=orthogonalEdgeStyle;rounded=0;orthogonalLoop=1;jettySize=auto;html=1;exitX=0.5;exitY=1;exitDx=0;exitDy=0;" edge="1" parent="1" source="mCfEj29NYgwNJOi-wfht-121" target="mCfEj29NYgwNJOi-wfht-122">
          <mxGeometry relative="1" as="geometry" />
        </mxCell>
        <mxCell id="2CikSkkNJPFcFxby6BeS-30" style="edgeStyle=orthogonalEdgeStyle;rounded=0;orthogonalLoop=1;jettySize=auto;html=1;exitX=0.5;exitY=1;exitDx=0;exitDy=0;" edge="1" parent="1" source="mCfEj29NYgwNJOi-wfht-121" target="mCfEj29NYgwNJOi-wfht-123">
          <mxGeometry relative="1" as="geometry" />
        </mxCell>
        <mxCell id="2CikSkkNJPFcFxby6BeS-31" style="edgeStyle=orthogonalEdgeStyle;rounded=0;orthogonalLoop=1;jettySize=auto;html=1;exitX=0.5;exitY=1;exitDx=0;exitDy=0;" edge="1" parent="1" source="mCfEj29NYgwNJOi-wfht-121" target="mCfEj29NYgwNJOi-wfht-124">
          <mxGeometry relative="1" as="geometry" />
        </mxCell>
        <mxCell id="mCfEj29NYgwNJOi-wfht-121" value="RightSideMenuComponent" style="rounded=1;whiteSpace=wrap;html=1;fontStyle=2;fontSize=20;" parent="1" vertex="1">
          <mxGeometry x="-88.5" y="384" width="271" height="120" as="geometry" />
        </mxCell>
        <mxCell id="mCfEj29NYgwNJOi-wfht-122" value="ClearLastPointButton" style="rounded=1;whiteSpace=wrap;html=1;fontStyle=2;fontSize=20;" parent="1" vertex="1">
          <mxGeometry x="-316" y="558" width="196" height="104" as="geometry" />
        </mxCell>
        <mxCell id="mCfEj29NYgwNJOi-wfht-123" value="ClearPointsButton" style="rounded=1;whiteSpace=wrap;html=1;fontStyle=2;fontSize=20;" parent="1" vertex="1">
          <mxGeometry x="-72.5" y="558" width="239" height="105" as="geometry" />
        </mxCell>
        <mxCell id="mCfEj29NYgwNJOi-wfht-124" value="GetScriptFromMapButton" style="rounded=1;whiteSpace=wrap;html=1;fontStyle=2;fontSize=20;" parent="1" vertex="1">
          <mxGeometry x="182.5" y="558" width="243" height="99" as="geometry" />
        </mxCell>
        <mxCell id="mCfEj29NYgwNJOi-wfht-125" value="SendDataToApiButton" style="rounded=1;whiteSpace=wrap;html=1;fontStyle=2;fontSize=20;" parent="1" vertex="1">
          <mxGeometry x="-564" y="558" width="216" height="104" as="geometry" />
        </mxCell>
        <mxCell id="mCfEj29NYgwNJOi-wfht-132" value="" style="endArrow=classic;html=1;rounded=0;exitX=1;exitY=0.5;exitDx=0;exitDy=0;entryX=0;entryY=0.5;entryDx=0;entryDy=0;fontStyle=2;fontSize=20;" parent="1" source="mCfEj29NYgwNJOi-wfht-118" target="mCfEj29NYgwNJOi-wfht-120" edge="1">
          <mxGeometry width="50" height="50" relative="1" as="geometry">
            <mxPoint x="99" y="395" as="sourcePoint" />
            <mxPoint x="149" y="345" as="targetPoint" />
          </mxGeometry>
        </mxCell>
        <mxCell id="2CikSkkNJPFcFxby6BeS-37" style="edgeStyle=orthogonalEdgeStyle;rounded=0;orthogonalLoop=1;jettySize=auto;html=1;exitX=0.25;exitY=1;exitDx=0;exitDy=0;entryX=0.5;entryY=0;entryDx=0;entryDy=0;" edge="1" parent="1" source="mCfEj29NYgwNJOi-wfht-173" target="mCfEj29NYgwNJOi-wfht-179">
          <mxGeometry relative="1" as="geometry" />
        </mxCell>
        <mxCell id="mCfEj29NYgwNJOi-wfht-173" value="&lt;i style=&quot;font-size: 20px;&quot;&gt;Web&lt;/i&gt;-приложение&amp;nbsp;&lt;br style=&quot;font-size: 20px;&quot;&gt;по формированию маршрута на спутниковой карте" style="rounded=0;whiteSpace=wrap;html=1;fontSize=20;" parent="1" vertex="1">
          <mxGeometry x="866" y="-236" width="487" height="77" as="geometry" />
        </mxCell>
        <mxCell id="mCfEj29NYgwNJOi-wfht-174" style="edgeStyle=orthogonalEdgeStyle;rounded=0;orthogonalLoop=1;jettySize=auto;html=1;exitX=0.5;exitY=1;exitDx=0;exitDy=0;fontSize=20;" parent="1" source="mCfEj29NYgwNJOi-wfht-179" target="mCfEj29NYgwNJOi-wfht-182" edge="1">
          <mxGeometry relative="1" as="geometry" />
        </mxCell>
        <mxCell id="mCfEj29NYgwNJOi-wfht-175" style="edgeStyle=orthogonalEdgeStyle;rounded=0;orthogonalLoop=1;jettySize=auto;html=1;exitX=0.5;exitY=1;exitDx=0;exitDy=0;fontSize=20;" parent="1" source="mCfEj29NYgwNJOi-wfht-179" target="mCfEj29NYgwNJOi-wfht-184" edge="1">
          <mxGeometry relative="1" as="geometry" />
        </mxCell>
        <mxCell id="mCfEj29NYgwNJOi-wfht-176" style="edgeStyle=orthogonalEdgeStyle;rounded=0;orthogonalLoop=1;jettySize=auto;html=1;exitX=0.5;exitY=1;exitDx=0;exitDy=0;fontSize=20;" parent="1" source="mCfEj29NYgwNJOi-wfht-179" target="mCfEj29NYgwNJOi-wfht-186" edge="1">
          <mxGeometry relative="1" as="geometry" />
        </mxCell>
        <mxCell id="mCfEj29NYgwNJOi-wfht-177" style="edgeStyle=orthogonalEdgeStyle;rounded=0;orthogonalLoop=1;jettySize=auto;html=1;exitX=0.5;exitY=1;exitDx=0;exitDy=0;entryX=0.5;entryY=0;entryDx=0;entryDy=0;fontSize=20;" parent="1" source="mCfEj29NYgwNJOi-wfht-179" target="mCfEj29NYgwNJOi-wfht-188" edge="1">
          <mxGeometry relative="1" as="geometry" />
        </mxCell>
        <mxCell id="2CikSkkNJPFcFxby6BeS-33" style="edgeStyle=orthogonalEdgeStyle;rounded=0;orthogonalLoop=1;jettySize=auto;html=1;exitX=1;exitY=0.5;exitDx=0;exitDy=0;entryX=0;entryY=0.5;entryDx=0;entryDy=0;" edge="1" parent="1" source="mCfEj29NYgwNJOi-wfht-179" target="mCfEj29NYgwNJOi-wfht-190">
          <mxGeometry relative="1" as="geometry" />
        </mxCell>
        <mxCell id="mCfEj29NYgwNJOi-wfht-179" value="&lt;span style=&quot;font-weight: normal; font-size: 20px;&quot;&gt;&amp;nbsp; &amp;nbsp; &amp;nbsp;Подключение к &lt;i style=&quot;font-size: 20px;&quot;&gt;react-yandex-maps API&lt;/i&gt;&lt;/span&gt;" style="swimlane;whiteSpace=wrap;html=1;startSize=57;fontSize=20;" parent="1" vertex="1">
          <mxGeometry x="837" y="-131" width="283.5" height="143" as="geometry">
            <mxRectangle x="264" y="97" width="248" height="33" as="alternateBounds" />
          </mxGeometry>
        </mxCell>
        <mxCell id="mCfEj29NYgwNJOi-wfht-180" value="Отправка &lt;i style=&quot;font-size: 20px;&quot;&gt;get&lt;/i&gt;-запросы &lt;br style=&quot;font-size: 20px;&quot;&gt;на получение объекта&lt;br style=&quot;font-size: 20px;&quot;&gt;&amp;nbsp;&lt;i style=&quot;font-size: 20px;&quot;&gt;react-yandex-maps&lt;/i&gt;" style="text;html=1;align=center;verticalAlign=middle;resizable=0;points=[];autosize=1;strokeColor=none;fillColor=none;fontSize=20;" parent="mCfEj29NYgwNJOi-wfht-179" vertex="1">
          <mxGeometry x="20.75" y="58.5" width="225" height="84" as="geometry" />
        </mxCell>
        <mxCell id="mCfEj29NYgwNJOi-wfht-182" value="&lt;span style=&quot;font-weight: normal; font-size: 20px;&quot;&gt;Удаление всех точек маршрута&lt;/span&gt;" style="swimlane;whiteSpace=wrap;html=1;startSize=72;fontSize=20;" parent="1" vertex="1">
          <mxGeometry x="695" y="130" width="216.5" height="120" as="geometry" />
        </mxCell>
        <mxCell id="mCfEj29NYgwNJOi-wfht-183" value="Метод&amp;nbsp; &lt;i style=&quot;font-size: 20px;&quot;&gt;clearRoute&lt;/i&gt;()" style="text;html=1;align=center;verticalAlign=middle;resizable=0;points=[];autosize=1;strokeColor=none;fillColor=none;fontSize=20;" parent="mCfEj29NYgwNJOi-wfht-182" vertex="1">
          <mxGeometry x="6" y="73" width="198" height="36" as="geometry" />
        </mxCell>
        <mxCell id="mCfEj29NYgwNJOi-wfht-184" value="&lt;span style=&quot;font-weight: normal; font-size: 20px;&quot;&gt;&amp;nbsp; &amp;nbsp; Удаление последней точки маршрута&lt;/span&gt;" style="swimlane;whiteSpace=wrap;html=1;startSize=72;fontSize=20;" parent="1" vertex="1">
          <mxGeometry x="930" y="130" width="239.5" height="118" as="geometry" />
        </mxCell>
        <mxCell id="mCfEj29NYgwNJOi-wfht-185" value="Метод&amp;nbsp; &lt;i style=&quot;font-size: 20px;&quot;&gt;clearLastPoint&lt;/i&gt;()" style="text;html=1;align=center;verticalAlign=middle;resizable=0;points=[];autosize=1;strokeColor=none;fillColor=none;fontSize=20;" parent="mCfEj29NYgwNJOi-wfht-184" vertex="1">
          <mxGeometry x="5.75" y="73" width="228" height="36" as="geometry" />
        </mxCell>
        <mxCell id="mCfEj29NYgwNJOi-wfht-186" value="&lt;span style=&quot;font-weight: 400; font-size: 20px;&quot;&gt;Отправка данных на серверный &lt;i style=&quot;font-size: 20px;&quot;&gt;API&lt;/i&gt;&lt;/span&gt;" style="swimlane;whiteSpace=wrap;html=1;startSize=71;fontSize=20;" parent="1" vertex="1">
          <mxGeometry x="1187" y="130" width="233" height="115" as="geometry" />
        </mxCell>
        <mxCell id="mCfEj29NYgwNJOi-wfht-187" value="Метод&amp;nbsp; &lt;i style=&quot;font-size: 20px;&quot;&gt;sendDataToApi()&lt;/i&gt;" style="text;html=1;align=center;verticalAlign=middle;resizable=0;points=[];autosize=1;strokeColor=none;fillColor=none;fontSize=20;" parent="mCfEj29NYgwNJOi-wfht-186" vertex="1">
          <mxGeometry x="-2" y="70" width="237" height="36" as="geometry" />
        </mxCell>
        <mxCell id="mCfEj29NYgwNJOi-wfht-188" value="&lt;span style=&quot;font-weight: 400; font-size: 20px;&quot;&gt;&amp;nbsp; Генерация скрипта маршрута&lt;/span&gt;" style="swimlane;whiteSpace=wrap;html=1;startSize=67;fontSize=20;" parent="1" vertex="1">
          <mxGeometry x="1431" y="130" width="268" height="115" as="geometry" />
        </mxCell>
        <mxCell id="mCfEj29NYgwNJOi-wfht-189" value="Метод&amp;nbsp; &lt;i style=&quot;font-size: 20px;&quot;&gt;getScriptFromMap&lt;/i&gt;()" style="text;html=1;align=center;verticalAlign=middle;resizable=0;points=[];autosize=1;strokeColor=none;fillColor=none;fontSize=20;" parent="mCfEj29NYgwNJOi-wfht-188" vertex="1">
          <mxGeometry x="2" y="70" width="266" height="36" as="geometry" />
        </mxCell>
        <mxCell id="mCfEj29NYgwNJOi-wfht-190" value="&lt;span style=&quot;font-weight: normal; font-size: 20px;&quot;&gt;&amp;nbsp; &amp;nbsp; &amp;nbsp;Добавление точки на карту&lt;/span&gt;" style="swimlane;whiteSpace=wrap;html=1;startSize=34;fontSize=20;" parent="1" vertex="1">
          <mxGeometry x="1169.5" y="-131" width="316" height="143" as="geometry">
            <mxRectangle x="529" y="113" width="203" height="34" as="alternateBounds" />
          </mxGeometry>
        </mxCell>
        <mxCell id="mCfEj29NYgwNJOi-wfht-191" value="Необходимо выбрать точку&lt;br style=&quot;font-size: 20px;&quot;&gt;&amp;nbsp;на карте и нажать на нее &lt;br style=&quot;font-size: 20px;&quot;&gt;левой кнопкой мыши" style="text;html=1;align=center;verticalAlign=middle;resizable=0;points=[];autosize=1;strokeColor=none;fillColor=none;fontSize=20;" parent="mCfEj29NYgwNJOi-wfht-190" vertex="1">
          <mxGeometry x="17" y="50.5" width="272" height="84" as="geometry" />
        </mxCell>
        <mxCell id="2CikSkkNJPFcFxby6BeS-14" style="edgeStyle=orthogonalEdgeStyle;rounded=0;orthogonalLoop=1;jettySize=auto;html=1;exitX=0.5;exitY=0;exitDx=0;exitDy=0;entryX=0.5;entryY=1;entryDx=0;entryDy=0;" edge="1" parent="1" source="WonF9xWb7ADuJSO2RLMm-1" target="WonF9xWb7ADuJSO2RLMm-3">
          <mxGeometry relative="1" as="geometry" />
        </mxCell>
        <mxCell id="WonF9xWb7ADuJSO2RLMm-1" value="Формирование&amp;nbsp;&lt;br style=&quot;font-size: 20px;&quot;&gt;скрипта&amp;nbsp;&lt;br style=&quot;font-size: 20px;&quot;&gt;маршрута" style="rounded=1;whiteSpace=wrap;html=1;fontSize=20;" parent="1" vertex="1">
          <mxGeometry x="1516" y="937" width="189" height="99.5" as="geometry" />
        </mxCell>
        <mxCell id="2CikSkkNJPFcFxby6BeS-15" style="edgeStyle=orthogonalEdgeStyle;rounded=0;orthogonalLoop=1;jettySize=auto;html=1;exitX=0.5;exitY=0;exitDx=0;exitDy=0;entryX=0.5;entryY=1;entryDx=0;entryDy=0;" edge="1" parent="1" source="WonF9xWb7ADuJSO2RLMm-3" target="WonF9xWb7ADuJSO2RLMm-4">
          <mxGeometry relative="1" as="geometry" />
        </mxCell>
        <mxCell id="WonF9xWb7ADuJSO2RLMm-3" value="Отправка скрипта &lt;br style=&quot;font-size: 20px;&quot;&gt;на &lt;i style=&quot;font-size: 20px;&quot;&gt;API&amp;nbsp;&lt;/i&gt;&lt;br style=&quot;font-size: 20px;&quot;&gt;колесного робота" style="rounded=1;whiteSpace=wrap;html=1;fontSize=20;" parent="1" vertex="1">
          <mxGeometry x="1519.25" y="792" width="182.5" height="94" as="geometry" />
        </mxCell>
        <mxCell id="2CikSkkNJPFcFxby6BeS-17" style="edgeStyle=orthogonalEdgeStyle;rounded=0;orthogonalLoop=1;jettySize=auto;html=1;exitX=1;exitY=0.5;exitDx=0;exitDy=0;" edge="1" parent="1" source="WonF9xWb7ADuJSO2RLMm-4" target="WonF9xWb7ADuJSO2RLMm-5">
          <mxGeometry relative="1" as="geometry" />
        </mxCell>
        <mxCell id="WonF9xWb7ADuJSO2RLMm-4" value="Обработка&amp;nbsp;&lt;br style=&quot;font-size: 20px;&quot;&gt;скрипта&amp;nbsp;&lt;br style=&quot;font-size: 20px;&quot;&gt;маршрута" style="rounded=1;whiteSpace=wrap;html=1;fontSize=20;" parent="1" vertex="1">
          <mxGeometry x="1522" y="647.5" width="177" height="98" as="geometry" />
        </mxCell>
        <mxCell id="2CikSkkNJPFcFxby6BeS-18" style="edgeStyle=orthogonalEdgeStyle;rounded=0;orthogonalLoop=1;jettySize=auto;html=1;exitX=0.5;exitY=1;exitDx=0;exitDy=0;entryX=0.5;entryY=0;entryDx=0;entryDy=0;" edge="1" parent="1" source="WonF9xWb7ADuJSO2RLMm-5" target="WonF9xWb7ADuJSO2RLMm-6">
          <mxGeometry relative="1" as="geometry" />
        </mxCell>
        <mxCell id="WonF9xWb7ADuJSO2RLMm-5" value="Сравнение координат&lt;br&gt;&amp;nbsp;робота&amp;nbsp;&lt;br style=&quot;font-size: 20px;&quot;&gt;&amp;nbsp;координатами&lt;br&gt;&amp;nbsp;маршрута" style="rounded=1;whiteSpace=wrap;html=1;fontSize=20;" parent="1" vertex="1">
          <mxGeometry x="1737" y="645" width="225" height="103" as="geometry" />
        </mxCell>
        <mxCell id="WonF9xWb7ADuJSO2RLMm-6" value="Движение по заданной траектории" style="rounded=1;whiteSpace=wrap;html=1;fontSize=20;" parent="1" vertex="1">
          <mxGeometry x="1740.5" y="790" width="218" height="101.5" as="geometry" />
        </mxCell>
        <mxCell id="2CikSkkNJPFcFxby6BeS-9" style="edgeStyle=orthogonalEdgeStyle;rounded=0;orthogonalLoop=1;jettySize=auto;html=1;exitX=1;exitY=0.5;exitDx=0;exitDy=0;entryX=0;entryY=0.5;entryDx=0;entryDy=0;" edge="1" parent="1" source="WonF9xWb7ADuJSO2RLMm-11" target="WonF9xWb7ADuJSO2RLMm-12">
          <mxGeometry relative="1" as="geometry" />
        </mxCell>
        <mxCell id="WonF9xWb7ADuJSO2RLMm-11" value="Запуск &lt;i style=&quot;font-size: 20px;&quot;&gt;web-&lt;/i&gt;приложения" style="rounded=1;whiteSpace=wrap;html=1;fontSize=20;" parent="1" vertex="1">
          <mxGeometry x="1073" y="790" width="169" height="96" as="geometry" />
        </mxCell>
        <mxCell id="2CikSkkNJPFcFxby6BeS-10" style="edgeStyle=orthogonalEdgeStyle;rounded=0;orthogonalLoop=1;jettySize=auto;html=1;exitX=0.5;exitY=1;exitDx=0;exitDy=0;entryX=0.5;entryY=0;entryDx=0;entryDy=0;" edge="1" parent="1" source="WonF9xWb7ADuJSO2RLMm-12" target="WonF9xWb7ADuJSO2RLMm-13">
          <mxGeometry relative="1" as="geometry" />
        </mxCell>
        <mxCell id="WonF9xWb7ADuJSO2RLMm-12" value="Добавление точек маршрута на карту" style="rounded=1;whiteSpace=wrap;html=1;fontSize=20;" parent="1" vertex="1">
          <mxGeometry x="1294" y="791" width="182" height="95" as="geometry" />
        </mxCell>
        <mxCell id="2CikSkkNJPFcFxby6BeS-13" style="edgeStyle=orthogonalEdgeStyle;rounded=0;orthogonalLoop=1;jettySize=auto;html=1;exitX=1;exitY=0.5;exitDx=0;exitDy=0;entryX=0;entryY=0.5;entryDx=0;entryDy=0;" edge="1" parent="1" source="WonF9xWb7ADuJSO2RLMm-13" target="WonF9xWb7ADuJSO2RLMm-1">
          <mxGeometry relative="1" as="geometry" />
        </mxCell>
        <mxCell id="WonF9xWb7ADuJSO2RLMm-13" value="Обращение к &lt;i style=&quot;font-size: 20px;&quot;&gt;Yandex API&amp;nbsp;&lt;/i&gt;&amp;nbsp;и генерация маршрута" style="rounded=1;whiteSpace=wrap;html=1;fontSize=20;" parent="1" vertex="1">
          <mxGeometry x="1292.5" y="935" width="185" height="103.5" as="geometry" />
        </mxCell>
      </root>
    </mxGraphModel>
  </diagram>
</mxfile>
